<svg width="100" height="100" viewBox="0 0 100 100" fill="none" xmlns="http://www.w3.org/2000/svg">
<path d="M50 87.5003C47.0833 87.5003 44.6181 86.4934 42.6042 84.4795C40.5903 82.4656 39.5833 80.0003 39.5833 77.0837C39.5833 74.167 40.5903 71.7017 42.6042 69.6878C44.6181 67.6739 47.0833 66.667 50 66.667C52.9167 66.667 55.3819 67.6739 57.3958 69.6878C59.4097 71.7017 60.4167 74.167 60.4167 77.0837C60.4167 80.0003 59.4097 82.4656 57.3958 84.4795C55.3819 86.4934 52.9167 87.5003 50 87.5003ZM26.4583 63.9587L17.7083 55.0003C21.8056 50.9031 26.6153 47.6573 32.1375 45.2628C37.6597 42.8684 43.6139 41.6698 50 41.667C56.3889 41.667 62.3444 42.8823 67.8667 45.3128C73.3889 47.7434 78.1972 51.042 82.2917 55.2087L73.5417 63.9587C70.4861 60.9031 66.9444 58.5073 62.9167 56.7712C58.8889 55.035 54.5833 54.167 50 54.167C45.4167 54.167 41.1111 55.035 37.0833 56.7712C33.0556 58.5073 29.5139 60.9031 26.4583 63.9587ZM8.75 46.2503L0 37.5003C6.38889 30.9726 13.8542 25.8684 22.3958 22.1878C30.9375 18.5073 40.1389 16.667 50 16.667C59.8611 16.667 69.0625 18.5073 77.6042 22.1878C86.1458 25.8684 93.6111 30.9726 100 37.5003L91.25 46.2503C85.9028 40.9031 79.7056 36.7198 72.6583 33.7003C65.6111 30.6809 58.0583 29.1698 50 29.167C41.9444 29.167 34.3931 30.6781 27.3458 33.7003C20.2986 36.7226 14.1 40.9059 8.75 46.2503Z" fill="#AEE67F"/>
</svg>
