<svg width="28" height="28" viewBox="0 0 28 28" fill="none" xmlns="http://www.w3.org/2000/svg">
<path fill-rule="evenodd" clip-rule="evenodd" d="M14.0255 2.02705C13.6671 2.14343 13.4604 2.35031 13.3603 2.68811C13.3038 2.87721 13.2941 3.31684 13.2941 5.61194C13.2941 8.65215 13.2909 8.61336 13.6009 8.92368C14.0158 9.33745 14.9846 9.33745 15.3995 8.92368C15.7095 8.61336 15.7063 8.65215 15.7063 5.61194C15.7063 2.67033 15.7014 2.61861 15.4625 2.33415C15.2623 2.09655 15.0475 2.01736 14.5648 2.00443C14.3847 1.99427 14.2041 2.00185 14.0255 2.02705ZM6.02854 5.22081C5.77343 5.33718 5.39724 5.70569 5.26646 5.96752C5.19975 6.09842 5.16336 6.24268 5.16001 6.38958C5.15665 6.53649 5.18642 6.68226 5.24708 6.81607C5.36656 7.08275 9.11882 10.8519 9.41429 11.0022C9.83246 11.2172 10.2619 11.1121 10.6946 10.6887C11.1209 10.2717 11.2339 9.8191 11.0176 9.39725C10.8674 9.10147 7.10222 5.34526 6.83582 5.22566C6.70852 5.17047 6.57139 5.1416 6.43267 5.14077C6.29395 5.13993 6.15649 5.16716 6.02854 5.22081ZM22.3357 5.24667C22.1371 5.33879 21.798 5.6572 20.1802 7.28155C18.6932 8.77337 18.2395 9.25502 18.1669 9.41341C18.1065 9.54474 18.0754 9.68764 18.0757 9.83221C18.0759 9.97677 18.1076 10.1195 18.1685 10.2506C18.2815 10.4931 18.6529 10.8745 18.9031 11.0054C19.1566 11.138 19.5328 11.1364 19.796 11.0022C20.0656 10.8632 23.7953 7.12962 23.9341 6.85971C24.0002 6.72074 24.035 6.56889 24.0358 6.41496C24.0366 6.26104 24.0036 6.10882 23.939 5.96914C23.7603 5.67002 23.5079 5.42182 23.2059 5.24828C23.0723 5.17603 22.9229 5.13806 22.771 5.13778C22.6192 5.1375 22.4696 5.17491 22.3357 5.24667ZM2.71221 13.3442C2.23591 13.4945 2.00018 13.8743 2.00018 14.4869C2.0018 15.1124 2.2343 15.4874 2.71059 15.6296C2.90111 15.6862 3.32574 15.6959 5.63297 15.6959C8.03706 15.6959 8.35836 15.6878 8.55534 15.6231C8.70003 15.5755 8.83152 15.4946 8.93922 15.3868C9.04691 15.279 9.12779 15.1473 9.17533 15.0025C9.31419 14.5742 9.24476 13.9664 9.02356 13.6658C8.9349 13.5693 8.83065 13.4885 8.71518 13.4266L8.49398 13.3038L5.69593 13.2941C3.44361 13.2876 2.86075 13.2973 2.71221 13.3442ZM20.5467 13.3216C20.3284 13.3818 20.1311 13.5015 19.9768 13.6674C19.7556 13.9664 19.6862 14.5742 19.825 15.0025C19.9187 15.2934 20.1544 15.5294 20.445 15.6231C20.642 15.6878 20.9633 15.6959 23.3674 15.6959C25.6746 15.6959 26.0993 15.6862 26.2898 15.6296C26.7661 15.4874 26.9986 15.1124 27.0002 14.4869C27.0002 13.8646 26.7628 13.4913 26.2704 13.3426C26.1041 13.2925 25.5826 13.2828 23.3739 13.286C21.8917 13.2892 20.6194 13.3054 20.5467 13.3216ZM9.41913 18.1768C9.22054 18.269 8.88148 18.5874 7.26368 20.2117C5.77666 21.7035 5.32297 22.1852 5.25031 22.3436C5.18994 22.4749 5.15882 22.6178 5.1591 22.7624C5.15938 22.9069 5.19105 23.0497 5.25193 23.1808C5.36495 23.4233 5.7363 23.8047 5.98656 23.9356C6.24004 24.0681 6.61624 24.0665 6.87941 23.9324C7.14905 23.7934 10.8787 20.0598 11.0176 19.7899C11.0837 19.6509 11.1184 19.4991 11.1192 19.3451C11.1201 19.1912 11.087 19.039 11.0224 18.8993C10.8437 18.6002 10.5913 18.352 10.2894 18.1785C10.1558 18.1062 10.0063 18.0682 9.85446 18.0679C9.70259 18.0677 9.55302 18.1051 9.41913 18.1768ZM18.9451 18.151C18.69 18.2673 18.3138 18.6359 18.183 18.8977C18.1163 19.0286 18.0799 19.1728 18.0766 19.3197C18.0732 19.4667 18.103 19.6124 18.1636 19.7462C18.2831 20.0129 22.0354 23.7821 22.3308 23.9324C22.749 24.1473 23.1785 24.0423 23.6112 23.6188C24.0374 23.2018 24.1505 22.7493 23.9341 22.3274C23.784 22.0316 20.0188 18.2754 19.7524 18.1558C19.6251 18.1006 19.488 18.0718 19.3492 18.0709C19.2105 18.0701 19.073 18.0973 18.9451 18.151ZM14.0885 19.785C13.8703 19.8465 13.6732 19.9667 13.5185 20.1325C13.2957 20.4332 13.2941 20.4542 13.2941 23.3602C13.2941 25.6747 13.3038 26.0998 13.3603 26.2905C13.5024 26.7673 13.8786 27.0001 14.5002 27.0001C15.1218 27.0001 15.498 26.7673 15.6401 26.2905C15.7402 25.9479 15.7386 20.7516 15.6368 20.4525C15.6056 20.332 15.5483 20.2197 15.4691 20.1237C15.3899 20.0276 15.2906 19.9501 15.1783 19.8965C15.0007 19.7996 14.8974 19.7753 14.5922 19.764C14.424 19.7539 14.2552 19.7609 14.0885 19.785Z" fill="#B5B8B5"/>
</svg>
