<svg width="28" height="28" viewBox="0 0 28 28" fill="none" xmlns="http://www.w3.org/2000/svg">
<path fill-rule="evenodd" clip-rule="evenodd" d="M2.33203 14.0002C2.33203 7.55666 7.5552 2.3335 13.9987 2.3335C20.4422 2.3335 25.6654 7.55666 25.6654 14.0002C25.6654 20.4437 20.4422 25.6668 13.9987 25.6668C7.5552 25.6668 2.33203 20.4437 2.33203 14.0002ZM13.9987 15.1668C13.6893 15.1668 13.3925 15.0439 13.1737 14.8251C12.9549 14.6063 12.832 14.3096 12.832 14.0002V9.3335C12.832 9.02408 12.9549 8.72733 13.1737 8.50854C13.3925 8.28975 13.6893 8.16683 13.9987 8.16683C14.3081 8.16683 14.6049 8.28975 14.8237 8.50854C15.0424 8.72733 15.1654 9.02408 15.1654 9.3335V14.0002C15.1654 14.3096 15.0424 14.6063 14.8237 14.8251C14.6049 15.0439 14.3081 15.1668 13.9987 15.1668ZM12.2487 18.6668C12.2487 18.2027 12.4331 17.7576 12.7613 17.4294C13.0894 17.1012 13.5346 16.9168 13.9987 16.9168H14.0104C14.4745 16.9168 14.9196 17.1012 15.2478 17.4294C15.576 17.7576 15.7604 18.2027 15.7604 18.6668V18.6785C15.7604 19.1426 15.576 19.5877 15.2478 19.9159C14.9196 20.2441 14.4745 20.4285 14.0104 20.4285H13.9987C13.5346 20.4285 13.0894 20.2441 12.7613 19.9159C12.4331 19.5877 12.2487 19.1426 12.2487 18.6785V18.6668Z" fill="#B5B8B5"/>
</svg>
